<?xml version="1.0" encoding="UTF-8"?>
<svg width="28px" height="28px" viewBox="0 0 28 28" version="1.1" xmlns="http://www.w3.org/2000/svg" xmlns:xlink="http://www.w3.org/1999/xlink">
    <!-- Generator: Sketch 49.3 (51167) - http://www.bohemiancoding.com/sketch -->
    <title>icon-加 28*28@2x</title>
    <desc>Created with Sketch.</desc>
    <defs></defs>
    <g id="icon-加-28*28" stroke="none" stroke-width="1" fill="none" fill-rule="evenodd">
        <g id="Group">
            <rect id="Rectangle" x="0" y="0" width="28" height="28"></rect>
            <g id="Group-10">
                <circle id="Oval-11" fill="#0FBA57" cx="14" cy="14" r="14"></circle>
                <g id="Group-6" transform="translate(8.000000, 8.000000)" fill="#FFFFFF" fill-rule="nonzero">
                    <path d="M0.5,6.75 C0.0857864376,6.75 -0.25,6.41421356 -0.25,6 C-0.25,5.58578644 0.0857864376,5.25 0.5,5.25 L11.5,5.25 C11.9142136,5.25 12.25,5.58578644 12.25,6 C12.25,6.41421356 11.9142136,6.75 11.5,6.75 L0.5,6.75 Z" id="Line-3"></path>
                    <path d="M5.25,0 C5.25,-0.414213562 5.58578644,-0.75 6,-0.75 C6.41421356,-0.75 6.75,-0.414213562 6.75,0 L6.75,11 C6.75,11.4142136 6.41421356,11.75 6,11.75 C5.58578644,11.75 5.25,11.4142136 5.25,11 L5.25,0 Z" id="Line-3-Copy"></path>
                </g>
            </g>
        </g>
    </g>
</svg>