<?xml version="1.0" standalone="no"?><!DOCTYPE svg PUBLIC "-//W3C//DTD SVG 1.1//EN" "http://www.w3.org/Graphics/SVG/1.1/DTD/svg11.dtd"><svg t="1537155804092" class="icon" style="" viewBox="0 0 1024 1024" version="1.1" xmlns="http://www.w3.org/2000/svg" p-id="1037" xmlns:xlink="http://www.w3.org/1999/xlink" width="200" height="200"><defs><style type="text/css"></style></defs><path d="M693.696 291.2 384 600.896 266.304 483.2c-12.48-12.48-32.768-12.48-45.248 0s-12.48 32.768 0 45.248l140.288 140.288c6.272 6.272 14.464 9.408 22.656 9.408s16.384-3.136 22.656-9.344l332.288-332.288c12.48-12.48 12.48-32.768 0-45.248S706.176 278.72 693.696 291.2z" p-id="1038" fill="#1afa29"></path><path d="M480 0C214.912 0 0 214.912 0 480s214.912 480 480 480 480-214.912 480-480S745.088 0 480 0zM480 896c-229.76 0-416-186.24-416-416S250.24 64 480 64s416 186.24 416 416S709.76 896 480 896z" p-id="1039" fill="#1afa29"></path></svg>