<?xml version="1.0" encoding="UTF-8"?>
<svg width="22px" height="22px" viewBox="0 0 22 22" version="1.1" xmlns="http://www.w3.org/2000/svg" xmlns:xlink="http://www.w3.org/1999/xlink">
    <!-- Generator: Sketch 49.3 (51167) - http://www.bohemiancoding.com/sketch -->
    <title>guanbi 15.32@2x</title>
    <desc>Created with Sketch.</desc>
    <defs></defs>
    <g id="guanbi-15.32" stroke="none" stroke-width="1" fill="none" fill-rule="evenodd">
        <rect id="Rectangle-7" x="0" y="0" width="22" height="22"></rect>
        <g id="Group-13" transform="translate(3.000000, 3.000000)" fill="#BBBBBB" fill-rule="nonzero">
            <path d="M0.9873557,1.69446248 L15.3055375,16.0126443 C15.5007997,16.2079064 15.8173822,16.2079064 16.0126443,16.0126443 C16.2079064,15.8173822 16.2079064,15.5007997 16.0126443,15.3055375 L1.69446248,0.9873557 C1.49920034,0.792093554 1.18261785,0.792093554 0.9873557,0.9873557 C0.792093554,1.18261785 0.792093554,1.49920034 0.9873557,1.69446248 Z" id="Line"></path>
            <path d="M0.9873557,1.69446248 L15.3055375,16.0126443 C15.5007997,16.2079064 15.8173822,16.2079064 16.0126443,16.0126443 C16.2079064,15.8173822 16.2079064,15.5007997 16.0126443,15.3055375 L1.69446248,0.9873557 C1.49920034,0.792093554 1.18261785,0.792093554 0.9873557,0.9873557 C0.792093554,1.18261785 0.792093554,1.49920034 0.9873557,1.69446248 Z" id="Line-Copy" transform="translate(8.500000, 8.500000) scale(-1, 1) translate(-8.500000, -8.500000) "></path>
        </g>
    </g>
</svg>