<?xml version="1.0" encoding="UTF-8"?>
<svg width="34px" height="34px" viewBox="0 0 34 34" version="1.1" xmlns="http://www.w3.org/2000/svg" xmlns:xlink="http://www.w3.org/1999/xlink">
    <!-- Generator: Sketch 49.3 (51167) - http://www.bohemiancoding.com/sketch -->
    <title>daifukuan@2x</title>
    <desc>Created with Sketch.</desc>
    <defs></defs>
    <g id="daifukuan" stroke="none" stroke-width="1" fill="none" fill-rule="evenodd">
        <g transform="translate(3.000000, 5.000000)" id="Group-7">
            <g>
                <path d="M18.3333333,8.5 C16.2162418,8.5 14.5,10.2162418 14.5,12.3333333 C14.5,14.4504249 16.2162418,16.1666667 18.3333333,16.1666667 L26.5,16.1666667 L26.5,8.5 L18.3333333,8.5 Z M18.3333333,7.5 L27.5,7.5 L27.5,17.1666667 L18.3333333,17.1666667 C15.663957,17.1666667 13.5,15.0027096 13.5,12.3333333 C13.5,9.66395704 15.663957,7.5 18.3333333,7.5 Z" id="Rectangle-4" fill="#FF883B" fill-rule="nonzero"></path>
                <path d="M3,1.5 C2.17157288,1.5 1.5,2.17157288 1.5,3 L1.5,21 C1.5,21.8284271 2.17157288,22.5 3,22.5 L25,22.5 C25.8284271,22.5 26.5,21.8284271 26.5,21 L26.5,3 C26.5,2.17157288 25.8284271,1.5 25,1.5 L3,1.5 Z M3,0.5 L25,0.5 C26.3807119,0.5 27.5,1.61928813 27.5,3 L27.5,21 C27.5,22.3807119 26.3807119,23.5 25,23.5 L3,23.5 C1.61928813,23.5 0.5,22.3807119 0.5,21 L0.5,3 C0.5,1.61928813 1.61928813,0.5 3,0.5 Z" id="Rectangle-3" fill="#0FBA57" fill-rule="nonzero"></path>
                <circle id="Oval-2" fill="#0FBA57" cx="19.1666667" cy="12.1666667" r="2.16666667"></circle>
            </g>
        </g>
    </g>
</svg>