<?xml version="1.0" encoding="UTF-8"?>
<svg width="34px" height="34px" viewBox="0 0 34 34" version="1.1" xmlns="http://www.w3.org/2000/svg" xmlns:xlink="http://www.w3.org/1999/xlink">
    <!-- Generator: Sketch 49.3 (51167) - http://www.bohemiancoding.com/sketch -->
    <title>daifahuo@2x</title>
    <desc>Created with Sketch.</desc>
    <defs></defs>
    <g id="daifahuo" stroke="none" stroke-width="1" fill="none" fill-rule="evenodd">
        <g id="daifukuan" transform="translate(4.000000, 5.000000)">
            <g id="Group">
                <path d="M1.58333333,10.1666667 L1.58333333,21.6666667 C1.58333333,21.942809 1.80719096,22.1666667 2.08333333,22.1666667 L23.9166667,22.1666667 C24.192809,22.1666667 24.4166667,21.942809 24.4166667,21.6666667 L24.4166667,10.1666667 L1.58333333,10.1666667 Z M25.4166667,9.16666667 L25.4166667,21.6666667 C25.4166667,22.4950938 24.7450938,23.1666667 23.9166667,23.1666667 L2.08333333,23.1666667 C1.25490621,23.1666667 0.583333333,22.4950938 0.583333333,21.6666667 L0.583333333,9.16666667 L25.4166667,9.16666667 Z" id="Rectangle" fill="#0FBA57" fill-rule="nonzero"></path>
                <g id="Group-7" transform="translate(0.000000, 1.000000)" fill="#0FBA57" fill-rule="nonzero">
                    <path d="M2,1 C1.44771525,1 1,1.44771525 1,2 L1,4.5 C1,5.05228475 1.44771525,5.5 2,5.5 L24,5.5 C24.5522847,5.5 25,5.05228475 25,4.5 L25,2 C25,1.44771525 24.5522847,1 24,1 L2,1 Z M2,0 L24,0 C25.1045695,-2.02906125e-16 26,0.8954305 26,2 L26,4.5 C26,5.6045695 25.1045695,6.5 24,6.5 L2,6.5 C0.8954305,6.5 1.3527075e-16,5.6045695 0,4.5 L0,2 C-1.3527075e-16,0.8954305 0.8954305,2.02906125e-16 2,0 Z" id="Rectangle-3"></path>
                </g>
                <polygon id="Rectangle-2" fill="#FFFFFF" points="8.66666667 1 17.3333333 1 17.3333333 14 13 12 8.66666667 14"></polygon>
                <path d="M9.16666667,1.5 L9.16666667,13.2185453 L12.7904709,11.5460203 C12.9234185,11.4846599 13.0765815,11.4846599 13.2095291,11.5460203 L16.8333333,13.2185453 L16.8333333,1.5 L9.16666667,1.5 Z M8.87619576,14.4539797 C8.54488559,14.6068921 8.16666667,14.3648954 8.16666667,14 L8.16666667,1 C8.16666667,0.723857625 8.39052429,0.5 8.66666667,0.5 L17.3333333,0.5 C17.6094757,0.5 17.8333333,0.723857625 17.8333333,1 L17.8333333,14 C17.8333333,14.3648954 17.4551144,14.6068921 17.1238042,14.4539797 L13,12.5506854 L8.87619576,14.4539797 Z" id="Rectangle-2-Copy" fill="#FF883B" fill-rule="nonzero"></path>
            </g>
        </g>
    </g>
</svg>