<?xml version="1.0" encoding="UTF-8"?>
<svg width="34px" height="34px" viewBox="0 0 34 34" version="1.1" xmlns="http://www.w3.org/2000/svg" xmlns:xlink="http://www.w3.org/1999/xlink">
    <!-- Generator: Sketch 49.3 (51167) - http://www.bohemiancoding.com/sketch -->
    <title>daiguihuan@2x</title>
    <desc>Created with Sketch.</desc>
    <defs></defs>
    <g id="daiguihuan" stroke="none" stroke-width="1" fill="none" fill-rule="evenodd">
        <path d="M6,6.5 C5.17157288,6.5 4.5,7.17157288 4.5,8 L4.5,26 C4.5,26.8284271 5.17157288,27.5 6,27.5 L28,27.5 C28.8284271,27.5 29.5,26.8284271 29.5,26 L29.5,8 C29.5,7.17157288 28.8284271,6.5 28,6.5 L6,6.5 Z M6,5.5 L28,5.5 C29.3807119,5.5 30.5,6.61928813 30.5,8 L30.5,26 C30.5,27.3807119 29.3807119,28.5 28,28.5 L6,28.5 C4.61928813,28.5 3.5,27.3807119 3.5,26 L3.5,8 C3.5,6.61928813 4.61928813,5.5 6,5.5 Z" id="Rectangle-3" fill="#0FBA57" fill-rule="nonzero"></path>
        <polygon id="Line" fill="#0FBA57" fill-rule="nonzero" points="4 13 4 12 30 12 30 13"></polygon>
        <path d="M18.9120581,15.7651846 C18.9120581,15.4890422 19.1359157,15.2651846 19.4120581,15.2651846 C19.6882004,15.2651846 19.9120581,15.4890422 19.9120581,15.7651846 L19.9120581,22.9046988 C19.9120581,23.1808411 19.6882004,23.4046988 19.4120581,23.4046988 L15.4978445,23.4046988 C15.2217021,23.4046988 14.9978445,23.1808411 14.9978445,22.9046988 C14.9978445,22.6285564 15.2217021,22.4046988 15.4978445,22.4046988 L18.9120581,22.4046988 L18.9120581,15.7651846 Z" id="Rectangle-6" fill="#FF883B" fill-rule="nonzero" transform="translate(17.454951, 19.334942) rotate(-315.000000) translate(-17.454951, -19.334942) "></path>
    </g>
</svg>