<?xml version="1.0" encoding="UTF-8"?>
<svg width="34px" height="34px" viewBox="0 0 34 34" version="1.1" xmlns="http://www.w3.org/2000/svg" xmlns:xlink="http://www.w3.org/1999/xlink">
    <!-- Generator: Sketch 49.3 (51167) - http://www.bohemiancoding.com/sketch -->
    <title>daishouhuo@2x</title>
    <desc>Created with Sketch.</desc>
    <defs></defs>
    <g id="daishouhuo" stroke="none" stroke-width="1" fill="none" fill-rule="evenodd">
        <g id="Group-3" transform="translate(3.000000, 5.000000)">
            <g id="daifukuan" fill="#0FBA57" fill-rule="nonzero">
                <g id="Group">
                    <path d="M2.5795756,9.78381963 L2.5795756,20.8355438 C2.5795756,21.1116861 2.80343322,21.3355438 3.0795756,21.3355438 L21.8753316,21.3355438 C22.1514739,21.3355438 22.3753316,21.1116861 22.3753316,20.8355438 L22.3753316,9.78381963 L2.5795756,9.78381963 Z M23.3753316,8.78381963 L23.3753316,20.8355438 C23.3753316,21.6639709 22.7037587,22.3355438 21.8753316,22.3355438 L3.0795756,22.3355438 C2.25114847,22.3355438 1.5795756,21.6639709 1.5795756,20.8355438 L1.5795756,8.78381963 L23.3753316,8.78381963 Z" id="Rectangle"></path>
                    <g id="Group-7">
                        <path d="M2,0.5 C1.17157288,0.5 0.5,1.17157288 0.5,2 L0.5,4.23872679 C0.5,5.06715392 1.17157288,5.73872679 2,5.73872679 L22.9549072,5.73872679 C23.7833343,5.73872679 24.4549072,5.06715392 24.4549072,4.23872679 L24.4549072,2 C24.4549072,1.17157288 23.7833343,0.5 22.9549072,0.5 L2,0.5 Z M2,-0.5 L22.9549072,-0.5 C24.335619,-0.5 25.4549072,0.619288125 25.4549072,2 L25.4549072,4.23872679 C25.4549072,5.61943867 24.335619,6.73872679 22.9549072,6.73872679 L2,6.73872679 C0.619288125,6.73872679 -0.5,5.61943867 -0.5,4.23872679 L-0.5,2 C-0.5,0.619288125 0.619288125,-0.5 2,-0.5 Z" id="Rectangle-3"></path>
                    </g>
                </g>
            </g>
            <g id="Group-2" transform="translate(13.557029, 11.477454)">
                <circle id="Oval-5" fill="#FFFFFF" cx="7.23872679" cy="7.23872679" r="6.23872679"></circle>
                <path d="M7.23872679,13.9774536 C3.51703075,13.9774536 0.5,10.9604228 0.5,7.23872679 C0.5,3.51703075 3.51703075,0.5 7.23872679,0.5 C10.9604228,0.5 13.9774536,3.51703075 13.9774536,7.23872679 C13.9774536,10.9604228 10.9604228,13.9774536 7.23872679,13.9774536 Z M7.23872679,12.9774536 C10.4081381,12.9774536 12.9774536,10.4081381 12.9774536,7.23872679 C12.9774536,4.0693155 10.4081381,1.5 7.23872679,1.5 C4.0693155,1.5 1.5,4.0693155 1.5,7.23872679 C1.5,10.4081381 4.0693155,12.9774536 7.23872679,12.9774536 Z" id="Oval-5-Copy" fill="#0FBA57" fill-rule="nonzero"></path>
                <path d="M10.2307601,7.69396414 C10.5069025,7.69396414 10.7307601,7.91782176 10.7307601,8.19396414 C10.7307601,8.47010651 10.5069025,8.69396414 10.2307601,8.69396414 L6.84297742,8.69396414 C6.56683504,8.69396414 6.34297742,8.47010651 6.34297742,8.19396414 L6.34297742,4.8061814 C6.34297742,4.53003903 6.56683504,4.3061814 6.84297742,4.3061814 C7.11911979,4.3061814 7.34297742,4.53003903 7.34297742,4.8061814 L7.34297742,7.69396414 L10.2307601,7.69396414 Z" id="Rectangle-2" fill="#FF883B" fill-rule="nonzero"></path>
            </g>
        </g>
    </g>
</svg>