<?xml version="1.0" encoding="UTF-8"?>
<svg width="22px" height="22px" viewBox="0 0 22 22" version="1.1" xmlns="http://www.w3.org/2000/svg" xmlns:xlink="http://www.w3.org/1999/xlink">
    <!-- Generator: Sketch 49.3 (51167) - http://www.bohemiancoding.com/sketch -->
    <title>icon-删除@2x</title>
    <desc>Created with Sketch.</desc>
    <defs></defs>
    <g id="icon-删除" stroke="none" stroke-width="1" fill="none" fill-rule="evenodd">
        <rect id="Rectangle-11" x="0" y="0" width="22" height="22"></rect>
        <g id="Group-5" transform="translate(2.000000, 2.000000)" fill="#BBBBBB" fill-rule="nonzero">
            <path d="M6.5,5 L5.5,5 L5.5,2 C5.5,1.17157288 6.17157288,0.5 7,0.5 L11,0.5 C11.8284271,0.5 12.5,1.17157288 12.5,2 L12.5,5 L11.5,5 L11.5,2 C11.5,1.72385763 11.2761424,1.5 11,1.5 L7,1.5 C6.72385763,1.5 6.5,1.72385763 6.5,2 L6.5,5 Z" id="Rectangle-12"></path>
            <path d="M0.5,5 C0.223857625,5 0,4.77614237 0,4.5 C0,4.22385763 0.223857625,4 0.5,4 L17.5,4 C17.7761424,4 18,4.22385763 18,4.5 C18,4.77614237 17.7761424,5 17.5,5 L0.5,5 Z" id="Line-2"></path>
            <path d="M14.5,6.59624685 C14.5,6.32010447 14.7238576,6.09624685 15,6.09624685 C15.2761424,6.09624685 15.5,6.32010447 15.5,6.59624685 L15.5,14.8 C15.5,16.3013498 14.1923816,17.5 12.6,17.5 L5.4,17.5 C3.80761838,17.5 2.5,16.3013498 2.5,14.8 L2.5,6.59624685 C2.5,6.32010447 2.72385763,6.09624685 3,6.09624685 C3.27614237,6.09624685 3.5,6.32010447 3.5,6.59624685 L3.5,14.8 C3.5,15.7287031 4.34141482,16.5 5.4,16.5 L12.6,16.5 C13.6585852,16.5 14.5,15.7287031 14.5,14.8 L14.5,6.59624685 Z" id="Rectangle-2"></path>
            <path d="M6,8.5 C6,8.22385763 6.22385763,8 6.5,8 C6.77614237,8 7,8.22385763 7,8.5 L7,13.5 C7,13.7761424 6.77614237,14 6.5,14 C6.22385763,14 6,13.7761424 6,13.5 L6,8.5 Z" id="Line-3"></path>
            <path d="M11,8.5 C11,8.22385763 11.2238576,8 11.5,8 C11.7761424,8 12,8.22385763 12,8.5 L12,13.5 C12,13.7761424 11.7761424,14 11.5,14 C11.2238576,14 11,13.7761424 11,13.5 L11,8.5 Z" id="Line-3-Copy"></path>
        </g>
    </g>
</svg>