<?xml version="1.0" encoding="UTF-8"?>
<svg width="34px" height="34px" viewBox="0 0 34 34" version="1.1" xmlns="http://www.w3.org/2000/svg" xmlns:xlink="http://www.w3.org/1999/xlink">
    <!-- Generator: Sketch 49.3 (51167) - http://www.bohemiancoding.com/sketch -->
    <title>icon-购物车34*34@2x</title>
    <desc>Created with Sketch.</desc>
    <defs></defs>
    <g id="icon-购物车34*34" stroke="none" stroke-width="1" fill="none" fill-rule="evenodd">
        <g id="Group-2">
            <rect id="Rectangle-3" x="0" y="0" width="34" height="34"></rect>
            <g id="Group" transform="translate(4.857143, 3.642857)" fill="#666666" fill-rule="nonzero">
                <path d="M7.66917293,26 C5.98145459,26 4.61278195,24.634749 4.61278195,22.95 C4.61278195,21.265251 5.98145459,19.9 7.66917293,19.9 C9.35689127,19.9 10.7255639,21.265251 10.7255639,22.95 C10.7255639,24.634749 9.35689127,26 7.66917293,26 Z M7.66917293,25 C8.80516609,25 9.72556391,24.0819032 9.72556391,22.95 C9.72556391,21.8180968 8.80516609,20.9 7.66917293,20.9 C6.53317977,20.9 5.61278195,21.8180968 5.61278195,22.95 C5.61278195,24.0819032 6.53317977,25 7.66917293,25 Z" id="Oval"></path>
                <path d="M17.8947368,26 C16.2070185,26 14.8383459,24.634749 14.8383459,22.95 C14.8383459,21.265251 16.2070185,19.9 17.8947368,19.9 C19.5824552,19.9 20.9511278,21.265251 20.9511278,22.95 C20.9511278,24.634749 19.5824552,26 17.8947368,26 Z M17.8947368,25 C19.03073,25 19.9511278,24.0819032 19.9511278,22.95 C19.9511278,21.8180968 19.03073,20.9 17.8947368,20.9 C16.7587437,20.9 15.8383459,21.8180968 15.8383459,22.95 C15.8383459,24.0819032 16.7587437,25 17.8947368,25 Z" id="Oval-Copy"></path>
                <path d="M18.8755205,1.12548291 C18.6394713,0.982181192 18.5642846,0.674656505 18.7075864,0.438607297 C18.8508881,0.202558088 19.1584128,0.127371392 19.394462,0.270673111 L24.545185,3.3975951 C24.7180717,3.50255187 24.8107006,3.70132648 24.7798715,3.90121472 L22.2234805,20.4762147 C22.185874,20.7200459 21.9760375,20.9 21.7293233,20.9 L3.83458647,20.9 C3.59418062,20.9 3.38780634,20.7289111 3.34324932,20.4926704 L0.716046394,6.56328071 C0.657981549,6.25542179 0.894096708,5.97061029 1.20738354,5.97061029 L18.0031303,5.97061029 C18.2792727,5.97061029 18.5031303,6.19446791 18.5031303,6.47061029 C18.5031303,6.74675266 18.2792727,6.97061029 18.0031303,6.97061029 L1.81050344,6.97061029 L4.24909775,19.9 L21.3005273,19.9 L23.7406258,4.07901092 L18.8755205,1.12548291 Z" id="Rectangle-4"></path>
                <path d="M2.63014187,12.6125 C2.3539995,12.6125 2.13014187,12.3886424 2.13014187,12.1125 C2.13014187,11.8363576 2.3539995,11.6125 2.63014187,11.6125 L22.6277725,11.6125 C22.9039149,11.6125 23.1277725,11.8363576 23.1277725,12.1125 C23.1277725,12.3886424 22.9039149,12.6125 22.6277725,12.6125 L2.63014187,12.6125 Z" id="Line"></path>
            </g>
        </g>
    </g>
</svg>