<?xml version="1.0" encoding="UTF-8"?>
<svg width="32px" height="32px" viewBox="0 0 32 32" version="1.1" xmlns="http://www.w3.org/2000/svg" xmlns:xlink="http://www.w3.org/1999/xlink">
    <!-- Generator: Sketch 49.3 (51167) - http://www.bohemiancoding.com/sketch -->
    <title>icon-客户中心@2x</title>
    <desc>Created with Sketch.</desc>
    <defs></defs>
    <g id="icon-客户中心" stroke="none" stroke-width="1" fill="none" fill-rule="evenodd">
        <g id="Group-13">
            <circle id="Oval-4" fill="#F6F7F6" cx="16" cy="16" r="16"></circle>
            <g id="Group-8" transform="translate(7.000000, 11.000000)" fill="#333333" fill-rule="nonzero">
                <g id="Group">
                    <path d="M9.25910931,6.88637564 C7.48043108,6.88637564 6.03632602,5.45796737 6.03632602,3.69318782 C6.03632602,1.92840827 7.48043108,0.5 9.25910931,0.5 C11.0377875,0.5 12.4818926,1.92840827 12.4818926,3.69318782 C12.4818926,5.45796737 11.0377875,6.88637564 9.25910931,6.88637564 Z M9.25910931,5.88637564 C10.4879345,5.88637564 11.4818926,4.90322139 11.4818926,3.69318782 C11.4818926,2.48315425 10.4879345,1.5 9.25910931,1.5 C8.03028417,1.5 7.03632602,2.48315425 7.03632602,3.69318782 C7.03632602,4.90322139 8.03028417,5.88637564 9.25910931,5.88637564 Z" id="Oval"></path>
                    <path d="M13.706322,2.03863756 C13.4301796,2.03863756 13.206322,1.81477994 13.206322,1.53863756 C13.206322,1.26249519 13.4301796,1.03863756 13.706322,1.03863756 C15.0765739,1.03863756 16.1895839,2.13954969 16.1895839,3.50034227 C16.1895839,4.86113486 15.0765739,5.96204698 13.706322,5.96204698 C13.4301796,5.96204698 13.206322,5.73818935 13.206322,5.46204698 C13.206322,5.1859046 13.4301796,4.96204698 13.706322,4.96204698 C14.5267208,4.96204698 15.1895839,4.30638887 15.1895839,3.50034227 C15.1895839,2.69429567 14.5267208,2.03863756 13.706322,2.03863756 Z M17.7761934,9.04215807 C17.7761934,9.31830045 17.5523358,9.54215807 17.2761934,9.54215807 C17.0000511,9.54215807 16.7761934,9.31830045 16.7761934,9.04215807 C16.7761934,7.36937579 15.402981,6.0110896 13.706322,6.0110896 C13.4301796,6.0110896 13.206322,5.78723197 13.206322,5.5110896 C13.206322,5.23494722 13.4301796,5.0110896 13.706322,5.0110896 C15.9528341,5.0110896 17.7761934,6.81462981 17.7761934,9.04215807 Z" id="Combined-Shape"></path>
                    <path d="M1.24202518,2.03863756 C0.965882806,2.03863756 0.742025181,1.81477994 0.742025181,1.53863756 C0.742025181,1.26249519 0.965882806,1.03863756 1.24202518,1.03863756 C2.61227703,1.03863756 3.72528708,2.13954969 3.72528708,3.50034227 C3.72528708,4.86113486 2.61227703,5.96204698 1.24202518,5.96204698 C0.965882806,5.96204698 0.742025181,5.73818935 0.742025181,5.46204698 C0.742025181,5.1859046 0.965882806,4.96204698 1.24202518,4.96204698 C2.06242394,4.96204698 2.72528708,4.30638887 2.72528708,3.50034227 C2.72528708,2.69429567 2.06242394,2.03863756 1.24202518,2.03863756 Z M5.31189661,9.04215807 C5.31189661,9.31830045 5.08803898,9.54215807 4.81189661,9.54215807 C4.53575423,9.54215807 4.31189661,9.31830045 4.31189661,9.04215807 C4.31189661,7.36937579 2.93868419,6.0110896 1.24202518,6.0110896 C0.965882806,6.0110896 0.742025181,5.78723197 0.742025181,5.5110896 C0.742025181,5.23494722 0.965882806,5.0110896 1.24202518,5.0110896 C3.48853727,5.0110896 5.31189661,6.81462981 5.31189661,9.04215807 Z" id="Combined-Shape-Copy" transform="translate(3.026961, 5.290398) scale(-1, 1) translate(-3.026961, -5.290398) "></path>
                    <path d="M14.1155626,10.6954761 C14.1155626,10.9716185 13.8917049,11.1954761 13.6155626,11.1954761 C13.3394202,11.1954761 13.1155626,10.9716185 13.1155626,10.6954761 C13.1155626,8.59299864 11.3901855,6.88637564 9.25910931,6.88637564 C7.12803315,6.88637564 5.40265605,8.59299864 5.40265605,10.6954761 C5.40265605,10.9716185 5.17879842,11.1954761 4.90265605,11.1954761 C4.62651367,11.1954761 4.40265605,10.9716185 4.40265605,10.6954761 C4.40265605,8.03825266 6.57818007,5.88637564 9.25910931,5.88637564 C11.9400386,5.88637564 14.1155626,8.03825266 14.1155626,10.6954761 Z" id="Oval-7"></path>
                </g>
            </g>
        </g>
    </g>
</svg>