<?xml version="1.0" encoding="UTF-8"?>
<svg width="32px" height="32px" viewBox="0 0 32 32" version="1.1" xmlns="http://www.w3.org/2000/svg" xmlns:xlink="http://www.w3.org/1999/xlink">
    <!-- Generator: Sketch 49.3 (51167) - http://www.bohemiancoding.com/sketch -->
    <title>icon-服务中心@2x</title>
    <desc>Created with Sketch.</desc>
    <defs></defs>
    <g id="icon-服务中心" stroke="none" stroke-width="1" fill="none" fill-rule="evenodd">
        <circle id="Oval-4" fill="#F6F7F6" cx="16" cy="16" r="16"></circle>
        <g id="Group" transform="translate(9.000000, 9.000000)" fill="#333333" fill-rule="nonzero">
            <path d="M3.2123097,6.43323216 C3.2123097,4.28958673 4.66963075,2.84620291 6.65708905,2.84620291 C8.64454735,2.84620291 10.1018684,4.28958673 10.1018684,6.43323216 C10.1018684,6.70937453 9.87801078,6.93323216 9.60186841,6.93323216 C9.32572603,6.93323216 9.10186841,6.70937453 9.10186841,6.43323216 C9.10186841,4.84403402 8.09440229,3.84620291 6.65708905,3.84620291 C5.21977582,3.84620291 4.2123097,4.84403402 4.2123097,6.43323216 C4.2123097,7.72785134 4.87403944,8.8554388 5.82471802,9.28542194 L5.98609969,9.40099729 L6.07866546,9.5438334 C6.1202517,9.6927361 6.1202517,9.6927361 6.11771018,9.70432877 C6.11911324,9.7282438 6.11911324,9.7282438 6.11939212,9.7401905 C6.1198742,9.76505351 6.1198742,9.76505351 6.12015853,9.79800268 C6.12059032,9.88112633 6.12059032,9.88112633 6.12067348,10.0125468 C6.12067348,10.2038576 6.12000392,10.4950675 6.11866527,10.8864065 C6.11778022,11.1451422 5.91964931,11.3604643 5.66188015,11.3828254 C3.39829951,11.5791875 2.3851427,12.0815592 2.4031064,12.7127244 C2.41096255,12.988755 2.19356421,13.2188907 1.91753361,13.2267469 C1.64150301,13.234603 1.41136732,13.0172047 1.40351117,12.7411741 C1.36618361,11.4296479 2.66637046,10.7094627 5.12003082,10.4318975 C5.12041616,10.2772571 5.12062819,10.1486219 5.12066697,10.0460221 C3.9608363,9.37127408 3.2123097,7.97915722 3.2123097,6.43323216 Z" id="Oval"></path>
            <path d="M11.1234661,9.67189109 C11.1256937,9.64913396 11.1256937,9.64913396 11.1728983,9.51415815 L11.3151211,9.3431293 C11.4217174,9.29536266 11.5373037,9.27685134 11.6618801,9.28759534 C11.7864566,9.29833933 11.8945298,9.33613998 11.9860997,9.40099729 L12.0786655,9.5438334 C12.1202517,9.6927361 12.1202517,9.6927361 12.1177102,9.70432877 C12.1191132,9.7282438 12.1191132,9.7282438 12.1193921,9.7401905 C12.1198742,9.76505351 12.1198742,9.76505351 12.1201585,9.79800268 C12.1205903,9.88112633 12.1205903,9.88112633 12.1206735,10.0125468 C12.1206735,10.2038576 12.1200039,10.4950675 12.1186653,10.8864065 C12.1177802,11.1451422 11.9196493,11.3604643 11.6618801,11.3828254 C9.39829951,11.5791875 8.3851427,12.0815592 8.4031064,12.7127244 C8.41096255,12.988755 8.19356421,13.2188907 7.91753361,13.2267469 C7.64150301,13.234603 7.41136732,13.0172047 7.40351117,12.7411741 C7.36618361,11.4296479 8.66637046,10.7094627 11.1200308,10.4318975 C11.1204593,10.2599471 11.1206735,10.1201496 11.1206735,10.0125468 C11.1205895,9.88306575 11.1205895,9.88306575 11.1201858,9.80538693 C11.1200471,9.79000952 11.1199827,9.78287604 11.1199177,9.77775718 C11.1173983,9.74311478 11.1184719,9.70768143 11.1234661,9.67189109 Z" id="Oval-Copy" transform="translate(9.761701, 11.255795) scale(-1, 1) translate(-9.761701, -11.255795) "></path>
            <path d="M1.58011136,6.26602308 L1.58011136,7.77314855 C1.58011136,8.04929093 1.35625374,8.27314855 1.08011136,8.27314855 C0.803968986,8.27314855 0.580111361,8.04929093 0.580111361,7.77314855 L0.580111361,5.95573871 C0.580111361,5.76569252 0.687851979,5.5920766 0.858144733,5.50770878 L1.5097694,5.18487559 C1.67237154,2.57026148 3.84441803,0.5 6.5,0.5 L7.14027656,0.5 C7.41641894,0.5 7.64027656,0.723857625 7.64027656,1 C7.64027656,1.27614237 7.41641894,1.5 7.14027656,1.5 L6.5,1.5 C4.290861,1.5 2.5,3.290861 2.5,5.5 C2.5,5.69004618 2.39225938,5.86366211 2.22196663,5.94802993 L1.58011136,6.26602308 Z M11.3581447,5.94802993 C11.187852,5.86366211 11.0801114,5.69004618 11.0801114,5.5 C11.0801114,3.290861 9.28925036,1.5 7.08011136,1.5 L6.79130433,1.5 C6.51516195,1.5 6.29130433,1.27614237 6.29130433,1 C6.29130433,0.723857625 6.51516195,0.5 6.79130433,0.5 L7.08011136,0.5 C9.73569333,0.5 11.9077398,2.57026148 12.070342,5.18487559 L12.7219666,5.50770878 C12.8922594,5.5920766 13,5.76569252 13,5.95573871 L13,7.77314855 C13,8.04929093 12.7761424,8.27314855 12.5,8.27314855 C12.2238576,8.27314855 12,8.04929093 12,7.77314855 L12,6.26602308 L11.3581447,5.94802993 Z" id="Combined-Shape"></path>
            <path d="M6.9383492,8.90302343 C6.664314,8.86897464 6.46976658,8.61922321 6.50381538,8.34518801 C6.53786417,8.07115281 6.7876156,7.87660539 7.0616508,7.91065419 C7.79025524,8.00118308 8.48485218,7.96843771 9.1480531,7.81334174 C9.78438115,7.66453025 10.2471324,7.43371077 10.5453831,7.13133597 C10.7392999,6.93473773 11.0558749,6.93256402 11.2524732,7.12648086 C11.4490714,7.3203977 11.4512451,7.63697273 11.2573283,7.83357098 C10.8130663,8.28397601 10.1828544,8.5983246 9.37576876,8.78706941 C8.595556,8.96952974 7.78221232,9.00787319 6.9383492,8.90302343 Z" id="Path-2"></path>
        </g>
    </g>
</svg>