<?xml version="1.0" encoding="UTF-8"?>
<svg width="19px" height="19px" viewBox="0 0 19 19" version="1.1" xmlns="http://www.w3.org/2000/svg" xmlns:xlink="http://www.w3.org/1999/xlink">
    <!-- Generator: Sketch 49.3 (51167) - http://www.bohemiancoding.com/sketch -->
    <title>icon-设置@2x</title>
    <desc>Created with Sketch.</desc>
    <defs></defs>
    <g id="icon-设置" stroke="none" stroke-width="1" fill="none" fill-rule="evenodd">
        <path d="M3.58250786,5.60564287 C3.03076467,6.5612901 2.0342247,7.19356596 0.625964386,7.51527045 C0.542374416,8.01043655 0.5,8.51479451 0.5,9.02482358 C0.5,9.53485264 0.542374416,10.0392106 0.625964386,10.5343767 C2.0342247,10.8560812 3.03076467,11.4883571 3.58250786,12.4440043 C4.13384974,13.3989564 4.1834756,14.5771231 3.7589451,15.9562656 C4.53901788,16.6031558 5.42273091,17.1148787 6.37407225,17.4672749 C7.35638603,16.4095507 8.40175405,15.863185 9.50470257,15.863185 C10.6067449,15.863185 11.6513166,16.4086626 12.6329231,17.4646804 C13.5846726,17.1112285 14.4685784,16.5982675 15.2485471,15.9500459 C14.8260815,14.5735993 14.8763889,13.3975128 15.4268973,12.4440043 C15.9773554,11.4905828 16.9705897,10.8590014 18.3736572,10.5366164 C18.4574976,10.0407322 18.5,9.53562221 18.5,9.02482358 C18.5,8.51402495 18.4574976,8.008915 18.3736572,7.51303073 C16.9705897,7.1906458 15.9773554,6.55906433 15.4268973,5.60564287 C14.8763889,4.65213438 14.8260815,3.47604782 15.2485471,2.09960122 C14.4685784,1.45137964 13.5846726,0.938418674 12.6329231,0.584966712 C11.6513166,1.64098458 10.6067449,2.18646216 9.50470257,2.18646216 C8.40175405,2.18646216 7.35638603,1.64009641 6.37407225,0.582372265 C5.42273091,0.934768443 4.53901788,1.44649132 3.7589451,2.09338157 C4.1834756,3.4725241 4.13384974,4.65069072 3.58250786,5.60564287 Z M2.84638958,1.55947679 C3.86776802,0.648546454 5.06558656,-0.0456454513 6.36839926,-0.474888583 L6.6869629,-0.579847074 L6.90491324,-0.324902519 C7.778787,0.697299845 8.64309653,1.18646216 9.50470257,1.18646216 C10.3656695,1.18646216 11.2293205,0.698034683 12.1025451,-0.322626145 L12.3206959,-0.577609755 L12.6393253,-0.472340046 C13.9423909,-0.0418294219 15.1401762,0.653797783 16.1611359,1.56619529 L16.4108806,1.78938374 L16.2995108,2.10526703 C15.8536225,3.36996039 15.8628881,4.36080121 16.2929227,5.10564287 C16.7229936,5.85054758 17.576564,6.35401541 18.8949536,6.60018791 L19.2248816,6.66179277 L19.2928262,6.99047378 C19.4301882,7.65496104 19.5,8.33554644 19.5,9.02482358 C19.5,9.71410071 19.4301882,10.3946861 19.2928262,11.0591734 L19.2248816,11.3878544 L18.8949536,11.4494592 C17.576564,11.6956317 16.7229936,12.1990996 16.2929227,12.9440043 C15.8628881,13.6888459 15.8536225,14.6796868 16.2995108,15.9443801 L16.4108806,16.2602634 L16.1611359,16.4834519 C15.1401762,17.3958494 13.9423909,18.0914766 12.6393253,18.5219872 L12.3206959,18.6272569 L12.1025451,18.3722733 C11.2293205,17.3516125 10.3656695,16.863185 9.50470257,16.863185 C8.64309653,16.863185 7.778787,17.3523473 6.90491324,18.3745497 L6.6869629,18.6294942 L6.36839926,18.5245357 C5.06558656,18.0952926 3.86776802,17.4011007 2.84638958,16.4901704 L2.595932,16.2667963 L2.70777455,15.9503849 C3.15580985,14.6828575 3.14719662,13.6900231 2.71648246,12.9440043 C2.28541303,12.1973701 1.4288259,11.6932684 0.105251522,11.447747 L-0.225241121,11.3864411 L-0.293222195,11.0572566 C-0.430322591,10.3933761 -0.5,9.71343687 -0.5,9.02482358 C-0.5,8.33621028 -0.430322591,7.65627108 -0.293222195,6.99239051 L-0.225241121,6.66320609 L0.105251522,6.60190013 C1.4288259,6.35637876 2.28541303,5.85227702 2.71648246,5.10564287 C3.14719662,4.35962405 3.15580985,3.36678962 2.70777455,2.09926225 L2.595932,1.78285081 L2.84638958,1.55947679 Z" id="Combined-Shape" fill="#FFFFFF" fill-rule="nonzero"></path>
        <path d="M9.52673651,12.8373161 C7.50169242,12.8373161 5.86006984,11.1956935 5.86006984,9.17064942 C5.86006984,7.14560533 7.50169242,5.50398275 9.52673651,5.50398275 C11.5517806,5.50398275 13.1934032,7.14560533 13.1934032,9.17064942 C13.1934032,11.1956935 11.5517806,12.8373161 9.52673651,12.8373161 Z M9.52673651,11.8373161 C10.9994958,11.8373161 12.1934032,10.6434087 12.1934032,9.17064942 C12.1934032,7.69789008 10.9994958,6.50398275 9.52673651,6.50398275 C8.05397717,6.50398275 6.86006984,7.69789008 6.86006984,9.17064942 C6.86006984,10.6434087 8.05397717,11.8373161 9.52673651,11.8373161 Z" id="Oval" fill="#FFFFFF" fill-rule="nonzero"></path>
    </g>
</svg>